<?xml version="1.0" standalone="no"?>
<!DOCTYPE svg PUBLIC "-//W3C//DTD SVG 20010904//EN"
 "http://www.w3.org/TR/2001/REC-SVG-20010904/DTD/svg10.dtd">
<svg version="1.0" xmlns="http://www.w3.org/2000/svg"
 width="512.000000pt" height="512.000000pt" viewBox="0 0 512.000000 512.000000"
 preserveAspectRatio="xMidYMid meet">
<metadata>
Created by potrace 1.15, written by Peter Selinger 2001-2017
</metadata>
<g transform="translate(0.000000,512.000000) scale(0.100000,-0.100000)"
fill="#000000" stroke="none">
<path d="M2461 4133 c-40 -38 -856 -995 -870 -1021 -29 -54 0 -168 54 -210
l28 -22 881 0 882 0 26 28 c14 15 31 37 37 49 17 33 14 115 -6 143 -39 56
-886 1041 -903 1050 -37 20 -98 12 -129 -17z"/>
<path d="M1651 2224 c-30 -21 -61 -89 -61 -135 0 -22 9 -50 23 -71 29 -42 850
-1004 884 -1035 29 -27 97 -31 131 -8 12 9 220 248 462 531 l440 515 0 55 c0
63 -21 115 -58 144 -24 20 -44 20 -911 20 -804 0 -889 -2 -910 -16z"/>
</g>
</svg>
