<svg xmlns="http://www.w3.org/2000/svg" width="22" height="22" viewBox="0 0 22 22">
    <g fill="none" fill-rule="evenodd">
        <path fill-rule="nonzero" d="M0 0h22v22H0z"/>
        <path fill="#224483" d="M19.835 9.713l-6.632-5.6a.48.48 0 0 0-.506-.07.466.466 0 0 0-.276.423V7.74c-5.293.145-7.846 2.726-9.06 4.901-1.056 1.891-1.292 3.763-1.346 4.532-.01.117-.015.237-.015.36v.03l.002.011v.01c.031.238.23.416.472.416a.47.47 0 0 0 .473-.466c0-.024 0-.082.005-.17.207-3.881 7.484-4.761 9.469-4.93v3.233c0 .182.108.347.276.423a.48.48 0 0 0 .506-.07l6.631-5.6a.463.463 0 0 0 0-.707z"/>
    </g>
</svg>
