<svg xmlns="http://www.w3.org/2000/svg" xmlns:xlink="http://www.w3.org/1999/xlink" width="36" height="36" viewBox="0 0 36 36">
    <defs>
        <path id="a" d="M17 0c9.389 0 17 7.611 17 17s-7.611 17-17 17S0 26.389 0 17 7.611 0 17 0z"/>
    </defs>
    <g fill="none" fill-rule="evenodd" transform="translate(1 1)">
        <mask id="b" fill="#fff">
            <use xlink:href="#a"/>
        </mask>
        <use stroke="#969494" fill="#fff" xlink:href="#a"/>
        <path fill="#969494" d="M12.112 22.154a3.05 3.05 0 0 1-.843-.24c-1.424-.62-2.3-2.403-2.3-6.99 0-5.705 3.702-10.337 8.269-10.337s8.269 4.632 8.269 10.337c0 8.403-3.216 7.236-7.343 7.035a4.01 4.01 0 0 1-.926.117 4.04 4.04 0 0 1-.9-.112c-1.585.095-3.036.369-4.226.19zM10.795 11.7a.75.75 0 0 0-.313.307c-.218.364-.268.889-.134 1.414.2.777.72 1.24 1.128 1.296l.335.045.09.33c.798 2.877 2.93 5.939 5.348 5.939 2.417 0 4.556-3.062 5.349-5.94l.089-.33.335-.044c.413-.05.927-.514 1.128-1.296.134-.525.084-1.05-.134-1.414-.078-.134-.218-.301-.436-.357-.044-.011-.1-.006-.156-.006a4.298 4.298 0 0 1-.62.777c-1.597 1.592-.781-.816-2.853-2.889-.564-.564-1.273-.96-1.965-1.274a4.39 4.39 0 0 1-.207.52c.196.106.38.24.553.363.184.162.374.313.53.492.168.167.296.357.436.53.117.19.24.364.324.543.089.178.167.346.223.508.067.156.106.313.14.447.033.134.061.246.072.346.034.196.05.302.05.302s-.05-.1-.133-.274a1.701 1.701 0 0 0-.168-.301c-.073-.112-.145-.24-.246-.364a2.943 2.943 0 0 0-.329-.385c-.117-.134-.274-.252-.413-.374-.157-.107-.313-.23-.486-.319-.168-.106-.357-.173-.53-.257-.196-.061-.369-.128-.559-.162-.044-.011-.09-.017-.134-.022a7.386 7.386 0 0 1-1.267 1.274c-1.938 1.52-4.182 1.776-5.047.575zm12.657 11.208c3.037 1.24 5.164 4.085 5.164 6.566v5.151H6.283v-5.151c0-2.487 2.122-5.325 5.165-6.566.653 1.107 1.401 2.04 2.395 2.554a138.48 138.48 0 0 1 3.584 1.91l.006-.005v-.017l.017.012.017-.012v.017l.005.006s1.53-.86 3.585-1.911c.993-.514 1.747-1.447 2.395-2.554z" mask="url(#b)" opacity="1"/>
    </g>
</svg>
