<svg xmlns="http://www.w3.org/2000/svg" width="80" height="80" viewBox="0 0 80 80">
    <g fill="none" fill-rule="evenodd">
        <path fill="#2EBABA" d="M40 1c21.54 0 39 17.461 39 39S61.54 79 40 79C18.461 79 1 61.539 1 40S18.461 1 40 1z"/>
        <path fill="#FFF" d="M57.419 17.785c1.461 0 2.65 1.19 2.65 2.653v39.504a2.654 2.654 0 0 1-2.65 2.652h-33.82a2.654 2.654 0 0 1-2.65-2.652V20.438a2.654 2.654 0 0 1 2.65-2.653h33.82zm-34.35 2.653v9.198h34.88v-9.198a.53.53 0 0 0-.53-.531h-33.82a.531.531 0 0 0-.53.53zm10.213 40.034V47.173H23.068v12.769c0 .292.238.53.53.53h9.684zm0-15.42V31.757H23.068V45.05h10.214zm12.333 15.42V47.173H35.402v13.3h10.213zm0-15.42V31.757H35.402V45.05h10.213zm12.334 14.89V31.758H47.735v28.714h9.684c.292 0 .53-.238.53-.53zM30.796 37.343a1.06 1.06 0 0 1 0 2.123h-1.56v1.562a1.06 1.06 0 1 1-2.121 0v-1.562h-1.56a1.06 1.06 0 0 1 0-2.123h1.56v-1.562a1.06 1.06 0 1 1 2.12 0v1.562h1.561zm12.386 0a1.06 1.06 0 0 1 0 2.123h-5.347a1.06 1.06 0 0 1 0-2.123h5.347zM29.674 53.825l1.28 1.281a1.062 1.062 0 0 1-.75 1.811c-.27 0-.542-.103-.75-.31l-1.279-1.281-1.28 1.28a1.056 1.056 0 0 1-1.499 0 1.062 1.062 0 0 1 0-1.5l1.28-1.28-1.28-1.281a1.06 1.06 0 1 1 1.5-1.5l1.279 1.28 1.28-1.281a1.06 1.06 0 1 1 1.499 1.5l-1.28 1.281zm13.613-2.78a1.062 1.062 0 0 1 0 1.5l-4.059 4.062a1.056 1.056 0 0 1-1.499 0 1.062 1.062 0 0 1 0-1.5l4.059-4.063a1.06 1.06 0 0 1 1.5 0zm-4.808-.156a.905.905 0 1 1 0 1.81.905.905 0 0 1 0-1.81zm4.06 4.062a.904.904 0 1 1-.002 1.81.904.904 0 0 1 .001-1.81zM55.52 43.202a1.06 1.06 0 0 1 0 2.122h-5.419a1.06 1.06 0 0 1 0-2.122h5.419zm0 3.704a1.06 1.06 0 0 1 0 2.122h-5.419a1.06 1.06 0 0 1 0-2.122h5.419z"/>
    </g>
</svg>
