<svg xmlns="http://www.w3.org/2000/svg" xmlns:xlink="http://www.w3.org/1999/xlink" width="36" height="36" viewBox="0 0 36 36">
    <defs>
        <path id="a" d="M17 0c9.389 0 17 7.611 17 17s-7.611 17-17 17S0 26.389 0 17 7.611 0 17 0z"/>
    </defs>
    <g fill="none" fill-rule="evenodd" transform="translate(1 1)">
        <mask id="b" fill="#fff">
            <use xlink:href="#a"/>
        </mask>
        <path stroke="#969494" d="M17-.5c9.665 0 17.5 7.835 17.5 17.5S26.665 34.5 17 34.5-.5 26.665-.5 17 7.335-.5 17-.5z"/>
        <path fill="#969494" d="M10.846 18.066c-.777-.27-1.427-1.046-1.681-2.044-.296-1.178.032-2.277.75-2.82a5.006 5.006 0 0 1-.195-1.353c0-3.265 3.273-5.911 7.296-5.911 4.024 0 7.286 2.641 7.286 5.91 0 .387-.048.762-.138 1.126.994.386 1.507 1.664 1.158 3.043-.254 1.003-.904 1.78-1.681 2.05-.904 2.978-3.246 6.074-6.397 6.074-3.151 0-5.488-3.096-6.398-6.075zm-.486-3.798c-.228.349-.307.925-.175 1.495.201.798.73 1.284 1.148 1.336l.349.048.095.338c.75 2.784 2.865 5.6 5.456 5.6 2.59 0 4.705-2.821 5.467-5.6l.095-.338.349-.048c.418-.052.946-.528 1.147-1.336.196-.792-.037-1.59-.492-1.79-.036-.011-.058-.038-.095-.043a.83.83 0 0 0-.2-.005l-.503.047-.074-.496c-.18-1.21-.592-2.272-1.174-3.143-.692 1.162-2.57 1.991-4.774 1.991-1.95 0-3.643-.65-4.494-1.605a7.832 7.832 0 0 0-.93 2.757l-.074.496-.503-.047c-.031-.005-.058-.005-.09-.005a.728.728 0 0 0-.11.01.705.705 0 0 0-.418.338zm13.096 7.485c3.167 1.29 5.382 4.247 5.372 6.825v5.356L17 38.437 5.543 33.934v-5.356c0-2.578 2.216-5.541 5.383-6.825.682 1.146 1.464 2.118 2.5 2.652 2.142 1.099 3.738 1.976 3.738 1.976v-.027l.027.01.026-.01v.027l.005.005s1.592-.888 3.733-1.981c1.042-.523 1.824-1.5 2.5-2.652z" mask="url(#b)"/>
    </g>
</svg>
