<svg xmlns="http://www.w3.org/2000/svg" width="22" height="22" viewBox="0 0 22 22">
    <g fill="none" fill-rule="evenodd">
        <path d="M9.664 10.788h1v1h-1z"/>
        <path fill="#FF6F00" d="M10.05 10.865a.311.311 0 0 1 0 .624.311.311 0 0 1 0-.624zm0 .569a.256.256 0 0 0 0-.514.256.256 0 0 0 0 .514zm.156-.29c.017 0 .031.014.031.03a.031.031 0 0 1-.03.032h-.125v.125a.031.031 0 0 1-.031.031.031.031 0 0 1-.031-.03v-.126h-.125a.031.031 0 0 1-.03-.031c0-.017.013-.031.03-.031h.125v-.125c0-.018.014-.032.03-.032.018 0 .032.014.032.032v.125h.124z"/>
        <g fill="#FF6F00">
            <path d="M19.273 10.269H2.727A.73.73 0 0 0 2 11a.73.73 0 0 0 .727.731h16.546A.73.73 0 0 0 20 11a.73.73 0 0 0-.727-.731z"/>
            <path d="M3.755 11l5.69-5.722a.734.734 0 0 0 0-1.035.724.724 0 0 0-1.027 0l-6.205 6.24a.734.734 0 0 0 0 1.034l6.205 6.24a.723.723 0 0 0 1.028 0 .734.734 0 0 0 0-1.035L3.756 11z"/>
        </g>
    </g>
</svg>
