<svg xmlns="http://www.w3.org/2000/svg" xmlns:xlink="http://www.w3.org/1999/xlink" width="272" height="362" viewBox="0 0 272 362">
    <defs>
        <rect id="a" width="270" height="360" rx="5"/>
        <linearGradient id="c" x1="100%" x2="0%" y1="50%" y2="50%">
            <stop offset="0%" stop-color="#EEE"/>
            <stop offset="100%" stop-color="#D8D8D8"/>
        </linearGradient>
        <linearGradient id="d" x1="50%" x2="50%" y1="0%" y2="100%">
            <stop offset="0%" stop-color="#DADADA"/>
            <stop offset="100%" stop-color="#B3B3B3"/>
        </linearGradient>
    </defs>
    <g fill="none" fill-rule="evenodd" transform="translate(1 1)">
        <mask id="b" fill="#fff">
            <use xlink:href="#a"/>
        </mask>
        <rect width="271" height="361" x="-.5" y="-.5" stroke="#224483" rx="5"/>
        <g mask="url(#b)">
            <g transform="translate(9 40)">
                <g transform="rotate(-15 198.626 25.879)">
                    <rect width="128" height="179" fill="#FFF" fill-rule="nonzero" rx="6"/>
                    <g fill-rule="nonzero" stroke="#FFF" stroke-width="1.4" transform="translate(14 86)">
                        <rect width="98.6" height="7.6" x=".7" y=".7" fill="url(#c)" rx="3.8"/>
                        <rect width="34.6" height="7.6" x=".7" y="14.7" fill="url(#c)" rx="3.8"/>
                        <rect width="34.6" height="7.6" x=".7" y="71.7" fill="url(#c)" rx="3.8"/>
                        <rect width="56.6" height="7.6" x="42.7" y="14.7" fill="url(#c)" rx="3.8"/>
                        <rect width="56.6" height="7.6" x="42.7" y="71.7" fill="url(#c)" rx="3.8"/>
                        <rect width="98.6" height="7.6" x=".7" y="28.7" fill="url(#c)" rx="3.8"/>
                        <rect width="56.6" height="7.6" x=".7" y="43.7" fill="url(#c)" rx="3.8"/>
                        <rect width="34.6" height="7.6" x="64.7" y="43.7" fill="#D8D8D8" rx="3.8"/>
                        <rect width="98.6" height="7.6" x=".7" y="57.7" fill="url(#c)" rx="3.8"/>
                    </g>
                    <path fill="#F4F4F4" d="M47.345 63.89l10.586-4.63c.574-.293 1.041-1.239 1.37-1.913.296-.609-.146-1.326-.813-1.326h-7.487s-2.707-.27-4.795-1.184c-1.223-.536-1.644-1.243-.88-2.353 2.237-3.247 6.86-10.89 7.01-18.785 0 0 .256-12.152 12.012-12.25 6.857.058 10.096 4.173 11.605 7.594.841 1.909 1.203 3.989 1.337 6.077.488 7.524 4.245 14.406 5.996 17.347.594.998.307 2.326-.675 2.925-1.61.982-3.581.63-3.581.63h-7.538c-.736 0-1.062 1.049-.483 1.515.472.379.921.721 1.164.856l8.806 5.435a7.699 7.699 0 0 1 2.975 2.996c-5.285 4.356-12.007 6.969-19.332 6.969-7.637 0-14.62-2.842-20-7.539a7.637 7.637 0 0 1 2.723-2.365z"/>
                    <path fill="url(#d)" d="M30.786 0C13.783 0 0 14.057 0 31.396c0 9.505 4.147 18.016 10.69 23.774a7.615 7.615 0 0 1 2.656-2.28l10.587-4.63c.574-.293 1.04-1.239 1.37-1.913.296-.609-.147-1.326-.814-1.326h-7.487s-2.707-.27-4.795-1.184c-1.223-.536-1.643-1.243-.879-2.353 2.236-3.247 6.859-10.89 7.009-18.785 0 0 .256-12.152 12.012-12.25 6.858.058 10.096 4.173 11.605 7.594.842 1.909 1.203 3.989 1.338 6.077.488 7.524 4.245 14.406 5.995 17.347.594.998.307 2.326-.675 2.925-1.611.982-3.582.63-3.582.63h-7.538c-.736 0-1.062 1.049-.483 1.515.472.379.921.721 1.164.856l8.806 5.435a7.674 7.674 0 0 1 2.957 2.968c.03.03.063.056.092.088 7.032-5.753 11.543-14.578 11.543-24.488C61.571 14.057 47.79 0 30.786 0z" transform="translate(34 11)"/>
                    <g transform="translate(74.66 50.097)">
                        <ellipse cx="13.941" cy="14.217" fill="#E8E8E8" stroke="#224483" rx="13.941" ry="14.217"/>
                        <path fill="#224483" d="M20.911 13.032h-5.809V7.11c0-.654-.52-1.185-1.161-1.185-.642 0-1.162.53-1.162 1.185v5.923H6.97c-.64 0-1.161.531-1.161 1.185s.52 1.185 1.161 1.185h5.809v5.924c0 .654.52 1.185 1.162 1.185.64 0 1.161-.531 1.161-1.185v-5.924h5.809c.641 0 1.162-.53 1.162-1.185 0-.654-.52-1.185-1.162-1.185z"/>
                    </g>
                </g>
                <rect width="128" height="179" x="106.213" y="10.91" fill="#E4E7EB" fill-rule="nonzero" rx="8" transform="rotate(9 170.213 100.41)"/>
                <g transform="rotate(9 62 787.796)">
                    <rect width="128" height="179" fill="#FFF" fill-rule="nonzero" rx="6"/>
                    <g fill="url(#c)" fill-rule="nonzero" stroke="#FFF" stroke-width="1.4" transform="translate(14 86)">
                        <rect width="98.6" height="7.6" x=".7" y=".7" rx="3.8"/>
                        <rect width="34.6" height="7.6" x=".7" y="14.7" rx="3.8"/>
                        <rect width="34.6" height="7.6" x=".7" y="71.7" rx="3.8"/>
                        <rect width="56.6" height="7.6" x="42.7" y="14.7" rx="3.8"/>
                        <rect width="56.6" height="7.6" x="42.7" y="71.7" rx="3.8"/>
                        <rect width="98.6" height="7.6" x=".7" y="28.7" rx="3.8"/>
                        <rect width="56.6" height="7.6" x=".7" y="43.7" rx="3.8"/>
                        <rect width="34.6" height="7.6" x="64.7" y="43.7" rx="3.8"/>
                        <rect width="98.6" height="7.6" x=".7" y="57.7" rx="3.8"/>
                    </g>
                    <path fill="#F4F4F4" d="M55.314 59.803l-9.054 4.961a8.138 8.138 0 0 0-1.453 1.04c5.279 4.471 12.093 7.169 19.539 7.169 7.39 0 14.162-2.658 19.426-7.068a8.03 8.03 0 0 0-1.597-1.075l-9.695-4.87a3.716 3.716 0 0 1-2.044-3.322v-3.822c.272-.312.584-.712.917-1.185a22.455 22.455 0 0 0 3.014-6.102 3.058 3.058 0 0 0 2.16-2.91v-4.08c0-.897-.398-1.699-1.015-2.26v-5.897s1.206-9.177-11.165-9.177c-12.37 0-11.165 9.177-11.165 9.177v5.897a3.047 3.047 0 0 0-1.015 2.26v4.08c0 1.074.563 2.02 1.404 2.566 1.015 4.437 3.672 7.631 3.672 7.631v3.727a3.721 3.721 0 0 1-1.929 3.26z"/>
                    <path fill="url(#d)" d="M30.865.005C14.108-.283.29 13.13.005 29.965c-.163 9.545 4.072 18.124 10.814 23.83.441-.387.914-.742 1.44-1.03l9.054-4.961a3.719 3.719 0 0 0 1.927-3.262v-3.727s-2.657-3.194-3.67-7.63a3.063 3.063 0 0 1-1.405-2.567v-4.08c0-.897.398-1.7 1.015-2.26V18.38s-1.206-9.177 11.165-9.177c12.37 0 11.165 9.177 11.165 9.177v5.898a3.047 3.047 0 0 1 1.014 2.26v4.08a3.058 3.058 0 0 1-2.16 2.91 22.455 22.455 0 0 1-3.013 6.102c-.334.473-.645.873-.918 1.185v3.822c0 1.407.792 2.694 2.044 3.322l9.696 4.87a8.07 8.07 0 0 1 1.592 1.072c6.539-5.478 10.763-13.67 10.92-22.893C60.973 14.173 47.622.292 30.865.005z" transform="translate(34 12)"/>
                    <g transform="translate(74.08 49.964)">
                        <ellipse cx="13.742" cy="13.805" fill="#E8E8E8" stroke="#224483" rx="13.742" ry="13.805"/>
                        <path fill="#224483" d="M20.612 12.655h-5.725V6.903c0-.635-.513-1.15-1.145-1.15-.633 0-1.146.515-1.146 1.15v5.752H6.871c-.632 0-1.145.515-1.145 1.15 0 .635.513 1.15 1.145 1.15h5.725v5.753c0 .635.513 1.15 1.146 1.15.632 0 1.145-.515 1.145-1.15v-5.752h5.725c.632 0 1.145-.516 1.145-1.15 0-.636-.513-1.151-1.145-1.151z"/>
                    </g>
                </g>
            </g>
        </g>
        <g fill="#FF6F00" fill-rule="nonzero" mask="url(#b)" opacity=".15">
            <g transform="translate(38 25)">
                <rect width="4" height="11" x="13" rx="2"/>
                <rect width="4" height="11" x="13" y="19" rx="2"/>
                <rect width="11" height="4" x="19" y="13" rx="2"/>
                <rect width="11" height="4" y="13" rx="2"/>
            </g>
            <g transform="translate(252 250)">
                <rect width="4" height="11" x="13" rx="2"/>
                <rect width="4" height="11" x="13" y="19" rx="2"/>
                <rect width="11" height="4" y="13" rx="2"/>
            </g>
            <path d="M229 10a1.6 1.6 0 0 1 1.6 1.6v4.6a1.6 1.6 0 0 1-3.2 0v-4.6A1.6 1.6 0 0 1 229 10zM229 22.2a1.6 1.6 0 0 1 1.6 1.6v4.6a1.6 1.6 0 0 1-3.2 0v-4.6a1.6 1.6 0 0 1 1.6-1.6zM232.8 18.4h4.6a1.6 1.6 0 0 1 0 3.2h-4.6a1.6 1.6 0 0 1 0-3.2zM220.6 18.4h4.6a1.6 1.6 0 0 1 0 3.2h-4.6a1.6 1.6 0 0 1 0-3.2z"/>
            <g>
                <path d="M14 220a1.6 1.6 0 0 1 1.6 1.6v4.6a1.6 1.6 0 0 1-3.2 0v-4.6A1.6 1.6 0 0 1 14 220zM14 232.2a1.6 1.6 0 0 1 1.6 1.6v4.6a1.6 1.6 0 0 1-3.2 0v-4.6a1.6 1.6 0 0 1 1.6-1.6zM17.8 228.4h4.6a1.6 1.6 0 0 1 0 3.2h-4.6a1.6 1.6 0 0 1 0-3.2zM5.6 228.4h4.6a1.6 1.6 0 0 1 0 3.2H5.6a1.6 1.6 0 0 1 0-3.2z"/>
            </g>
            <g>
                <path d="M148 254c.707 0 1.28.573 1.28 1.28v3.68a1.28 1.28 0 1 1-2.56 0v-3.68c0-.707.573-1.28 1.28-1.28zM148 263.76c.707 0 1.28.573 1.28 1.28v3.68a1.28 1.28 0 0 1-2.56 0v-3.68c0-.707.573-1.28 1.28-1.28zM151.04 260.72h3.68a1.28 1.28 0 1 1 0 2.56h-3.68a1.28 1.28 0 0 1 0-2.56zM141.28 260.72h3.68a1.28 1.28 0 1 1 0 2.56h-3.68a1.28 1.28 0 1 1 0-2.56z"/>
            </g>
        </g>
    </g>
</svg>
